G04 #@! TF.GenerationSoftware,KiCad,Pcbnew,(6.0.7-1)-1*
G04 #@! TF.CreationDate,2022-08-10T01:22:39+02:00*
G04 #@! TF.ProjectId,led_bar,6c65645f-6261-4722-9e6b-696361645f70,rev?*
G04 #@! TF.SameCoordinates,Original*
G04 #@! TF.FileFunction,Soldermask,Bot*
G04 #@! TF.FilePolarity,Negative*
%FSLAX46Y46*%
G04 Gerber Fmt 4.6, Leading zero omitted, Abs format (unit mm)*
G04 Created by KiCad (PCBNEW (6.0.7-1)-1) date 2022-08-10 01:22:39*
%MOMM*%
%LPD*%
G01*
G04 APERTURE LIST*
%ADD10C,1.600000*%
%ADD11R,1.600000X1.600000*%
%ADD12O,1.600000X1.600000*%
%ADD13R,1.700000X1.700000*%
%ADD14O,1.700000X1.700000*%
G04 APERTURE END LIST*
D10*
X152400000Y-124460000D03*
X154900000Y-124460000D03*
D11*
X152400000Y-127000000D03*
D12*
X152400000Y-129540000D03*
X152400000Y-132080000D03*
X152400000Y-134620000D03*
X152400000Y-137160000D03*
X152400000Y-139700000D03*
X152400000Y-142240000D03*
X152400000Y-144780000D03*
X160020000Y-144780000D03*
X160020000Y-142240000D03*
X160020000Y-139700000D03*
X160020000Y-137160000D03*
X160020000Y-134620000D03*
X160020000Y-132080000D03*
X160020000Y-129540000D03*
X160020000Y-127000000D03*
D11*
X142240000Y-124460000D03*
D12*
X142240000Y-127000000D03*
X142240000Y-129540000D03*
X142240000Y-132080000D03*
X142240000Y-134620000D03*
X142240000Y-137160000D03*
X142240000Y-139700000D03*
X142240000Y-142240000D03*
X142240000Y-144780000D03*
X142240000Y-147320000D03*
X149860000Y-147320000D03*
X149860000Y-144780000D03*
X149860000Y-142240000D03*
X149860000Y-139700000D03*
X149860000Y-137160000D03*
X149860000Y-134620000D03*
X149860000Y-132080000D03*
X149860000Y-129540000D03*
X149860000Y-127000000D03*
X149860000Y-124460000D03*
D13*
X139700000Y-124460000D03*
D14*
X139700000Y-127000000D03*
X139700000Y-129540000D03*
X139700000Y-132080000D03*
X139700000Y-134620000D03*
X139700000Y-137160000D03*
X139700000Y-139700000D03*
X139700000Y-142240000D03*
X139700000Y-144780000D03*
X139700000Y-147320000D03*
D13*
X162560000Y-124460000D03*
D14*
X162560000Y-127000000D03*
X162560000Y-129540000D03*
X162560000Y-132080000D03*
X162560000Y-134620000D03*
X162560000Y-137160000D03*
X162560000Y-139700000D03*
X162560000Y-142240000D03*
X162560000Y-144780000D03*
X162560000Y-147320000D03*
M02*
