G04 #@! TF.GenerationSoftware,KiCad,Pcbnew,(6.0.7-1)-1*
G04 #@! TF.CreationDate,2022-08-10T01:22:39+02:00*
G04 #@! TF.ProjectId,led_bar,6c65645f-6261-4722-9e6b-696361645f70,rev?*
G04 #@! TF.SameCoordinates,Original*
G04 #@! TF.FileFunction,Copper,L1,Top*
G04 #@! TF.FilePolarity,Positive*
%FSLAX46Y46*%
G04 Gerber Fmt 4.6, Leading zero omitted, Abs format (unit mm)*
G04 Created by KiCad (PCBNEW (6.0.7-1)-1) date 2022-08-10 01:22:39*
%MOMM*%
%LPD*%
G01*
G04 APERTURE LIST*
G04 Aperture macros list*
%AMRoundRect*
0 Rectangle with rounded corners*
0 $1 Rounding radius*
0 $2 $3 $4 $5 $6 $7 $8 $9 X,Y pos of 4 corners*
0 Add a 4 corners polygon primitive as box body*
4,1,4,$2,$3,$4,$5,$6,$7,$8,$9,$2,$3,0*
0 Add four circle primitives for the rounded corners*
1,1,$1+$1,$2,$3*
1,1,$1+$1,$4,$5*
1,1,$1+$1,$6,$7*
1,1,$1+$1,$8,$9*
0 Add four rect primitives between the rounded corners*
20,1,$1+$1,$2,$3,$4,$5,0*
20,1,$1+$1,$4,$5,$6,$7,0*
20,1,$1+$1,$6,$7,$8,$9,0*
20,1,$1+$1,$8,$9,$2,$3,0*%
G04 Aperture macros list end*
G04 #@! TA.AperFunction,SMDPad,CuDef*
%ADD10RoundRect,0.250000X0.400000X0.625000X-0.400000X0.625000X-0.400000X-0.625000X0.400000X-0.625000X0*%
G04 #@! TD*
G04 #@! TA.AperFunction,ComponentPad*
%ADD11C,1.600000*%
G04 #@! TD*
G04 #@! TA.AperFunction,ComponentPad*
%ADD12R,1.600000X1.600000*%
G04 #@! TD*
G04 #@! TA.AperFunction,ComponentPad*
%ADD13O,1.600000X1.600000*%
G04 #@! TD*
G04 #@! TA.AperFunction,ComponentPad*
%ADD14R,1.700000X1.700000*%
G04 #@! TD*
G04 #@! TA.AperFunction,ComponentPad*
%ADD15O,1.700000X1.700000*%
G04 #@! TD*
G04 #@! TA.AperFunction,ViaPad*
%ADD16C,0.800000*%
G04 #@! TD*
G04 #@! TA.AperFunction,Conductor*
%ADD17C,0.250000*%
G04 #@! TD*
G04 APERTURE END LIST*
D10*
X157760000Y-142240000D03*
X154660000Y-142240000D03*
D11*
X152400000Y-124460000D03*
X154900000Y-124460000D03*
D12*
X152400000Y-127000000D03*
D13*
X152400000Y-129540000D03*
X152400000Y-132080000D03*
X152400000Y-134620000D03*
X152400000Y-137160000D03*
X152400000Y-139700000D03*
X152400000Y-142240000D03*
X152400000Y-144780000D03*
X160020000Y-144780000D03*
X160020000Y-142240000D03*
X160020000Y-139700000D03*
X160020000Y-137160000D03*
X160020000Y-134620000D03*
X160020000Y-132080000D03*
X160020000Y-129540000D03*
X160020000Y-127000000D03*
D12*
X142240000Y-124460000D03*
D13*
X142240000Y-127000000D03*
X142240000Y-129540000D03*
X142240000Y-132080000D03*
X142240000Y-134620000D03*
X142240000Y-137160000D03*
X142240000Y-139700000D03*
X142240000Y-142240000D03*
X142240000Y-144780000D03*
X142240000Y-147320000D03*
X149860000Y-147320000D03*
X149860000Y-144780000D03*
X149860000Y-142240000D03*
X149860000Y-139700000D03*
X149860000Y-137160000D03*
X149860000Y-134620000D03*
X149860000Y-132080000D03*
X149860000Y-129540000D03*
X149860000Y-127000000D03*
X149860000Y-124460000D03*
D10*
X157760000Y-144780000D03*
X154660000Y-144780000D03*
X157760000Y-139700000D03*
X154660000Y-139700000D03*
X157760000Y-137160000D03*
X154660000Y-137160000D03*
X157760000Y-127000000D03*
X154660000Y-127000000D03*
X157760000Y-129540000D03*
X154660000Y-129540000D03*
X157760000Y-132080000D03*
X154660000Y-132080000D03*
X157760000Y-134620000D03*
X154660000Y-134620000D03*
D14*
X139700000Y-124460000D03*
D15*
X139700000Y-127000000D03*
X139700000Y-129540000D03*
X139700000Y-132080000D03*
X139700000Y-134620000D03*
X139700000Y-137160000D03*
X139700000Y-139700000D03*
X139700000Y-142240000D03*
X139700000Y-144780000D03*
X139700000Y-147320000D03*
D14*
X162560000Y-124460000D03*
D15*
X162560000Y-127000000D03*
X162560000Y-129540000D03*
X162560000Y-132080000D03*
X162560000Y-134620000D03*
X162560000Y-137160000D03*
X162560000Y-139700000D03*
X162560000Y-142240000D03*
X162560000Y-144780000D03*
X162560000Y-147320000D03*
D16*
X151384000Y-146774500D03*
D17*
X149860000Y-129540000D02*
X152400000Y-127000000D01*
X157760000Y-144780000D02*
X160020000Y-144780000D01*
X149860000Y-132080000D02*
X152400000Y-129540000D01*
X157760000Y-142240000D02*
X160020000Y-142240000D01*
X149860000Y-134620000D02*
X152400000Y-132080000D01*
X160020000Y-139700000D02*
X157760000Y-139700000D01*
X149860000Y-137160000D02*
X152400000Y-134620000D01*
X157760000Y-137160000D02*
X160020000Y-137160000D01*
X149860000Y-139700000D02*
X152400000Y-137160000D01*
X160020000Y-134620000D02*
X157760000Y-134620000D01*
X149860000Y-142240000D02*
X152400000Y-139700000D01*
X157760000Y-132080000D02*
X160020000Y-132080000D01*
X149860000Y-144780000D02*
X152400000Y-142240000D01*
X157760000Y-129540000D02*
X160020000Y-129540000D01*
X151609098Y-147574000D02*
X152400000Y-146783098D01*
X149860000Y-147320000D02*
X150114000Y-147574000D01*
X150114000Y-147574000D02*
X151609098Y-147574000D01*
X152400000Y-146783098D02*
X152400000Y-144780000D01*
X157760000Y-127000000D02*
X160020000Y-127000000D01*
X149860000Y-124460000D02*
X152400000Y-124460000D01*
X143365000Y-125585000D02*
X142240000Y-124460000D01*
X150804500Y-146195000D02*
X151384000Y-146774500D01*
X143365000Y-126855000D02*
X143365000Y-125585000D01*
X143365000Y-146195000D02*
X150804500Y-146195000D01*
X154900000Y-124460000D02*
X154900000Y-125770000D01*
X139700000Y-147320000D02*
X142240000Y-147320000D01*
X143365000Y-126855000D02*
X143510000Y-127000000D01*
X154660000Y-127000000D02*
X154660000Y-126010000D01*
X154660000Y-127000000D02*
X154660000Y-144780000D01*
X156972000Y-147320000D02*
X154660000Y-145008000D01*
X143365000Y-146195000D02*
X143365000Y-126855000D01*
X154660000Y-145008000D02*
X154660000Y-144780000D01*
X162560000Y-147320000D02*
X156972000Y-147320000D01*
X154900000Y-125770000D02*
X154660000Y-126010000D01*
X143510000Y-127000000D02*
X149860000Y-127000000D01*
X142240000Y-147320000D02*
X143365000Y-146195000D01*
X139700000Y-127000000D02*
X142240000Y-127000000D01*
X142240000Y-129540000D02*
X139700000Y-129540000D01*
X139700000Y-132080000D02*
X142240000Y-132080000D01*
X142240000Y-134620000D02*
X139700000Y-134620000D01*
X139700000Y-137160000D02*
X142240000Y-137160000D01*
X142240000Y-139700000D02*
X139700000Y-139700000D01*
X139700000Y-142240000D02*
X142240000Y-142240000D01*
X142240000Y-144780000D02*
X139700000Y-144780000D01*
M02*
