G04 #@! TF.GenerationSoftware,KiCad,Pcbnew,(6.0.7-1)-1*
G04 #@! TF.CreationDate,2022-08-10T01:22:39+02:00*
G04 #@! TF.ProjectId,led_bar,6c65645f-6261-4722-9e6b-696361645f70,rev?*
G04 #@! TF.SameCoordinates,Original*
G04 #@! TF.FileFunction,Legend,Top*
G04 #@! TF.FilePolarity,Positive*
%FSLAX46Y46*%
G04 Gerber Fmt 4.6, Leading zero omitted, Abs format (unit mm)*
G04 Created by KiCad (PCBNEW (6.0.7-1)-1) date 2022-08-10 01:22:39*
%MOMM*%
%LPD*%
G01*
G04 APERTURE LIST*
G04 Aperture macros list*
%AMRoundRect*
0 Rectangle with rounded corners*
0 $1 Rounding radius*
0 $2 $3 $4 $5 $6 $7 $8 $9 X,Y pos of 4 corners*
0 Add a 4 corners polygon primitive as box body*
4,1,4,$2,$3,$4,$5,$6,$7,$8,$9,$2,$3,0*
0 Add four circle primitives for the rounded corners*
1,1,$1+$1,$2,$3*
1,1,$1+$1,$4,$5*
1,1,$1+$1,$6,$7*
1,1,$1+$1,$8,$9*
0 Add four rect primitives between the rounded corners*
20,1,$1+$1,$2,$3,$4,$5,0*
20,1,$1+$1,$4,$5,$6,$7,0*
20,1,$1+$1,$6,$7,$8,$9,0*
20,1,$1+$1,$8,$9,$2,$3,0*%
G04 Aperture macros list end*
%ADD10C,0.150000*%
%ADD11C,0.120000*%
%ADD12RoundRect,0.250000X0.400000X0.625000X-0.400000X0.625000X-0.400000X-0.625000X0.400000X-0.625000X0*%
%ADD13C,1.600000*%
%ADD14R,1.600000X1.600000*%
%ADD15O,1.600000X1.600000*%
%ADD16R,1.700000X1.700000*%
%ADD17O,1.700000X1.700000*%
G04 APERTURE END LIST*
D10*
X144667219Y-138611552D02*
X143952933Y-138611552D01*
X143810076Y-138563933D01*
X143714838Y-138468695D01*
X143667219Y-138325838D01*
X143667219Y-138230600D01*
X143667219Y-139563933D02*
X143667219Y-139087742D01*
X144667219Y-139087742D01*
X143762457Y-140468695D02*
X143714838Y-140421076D01*
X143667219Y-140278219D01*
X143667219Y-140182980D01*
X143714838Y-140040123D01*
X143810076Y-139944885D01*
X143905314Y-139897266D01*
X144095790Y-139849647D01*
X144238647Y-139849647D01*
X144429123Y-139897266D01*
X144524361Y-139944885D01*
X144619600Y-140040123D01*
X144667219Y-140182980D01*
X144667219Y-140278219D01*
X144619600Y-140421076D01*
X144571980Y-140468695D01*
X144667219Y-141182980D02*
X143952933Y-141182980D01*
X143810076Y-141135361D01*
X143714838Y-141040123D01*
X143667219Y-140897266D01*
X143667219Y-140802028D01*
X143667219Y-142135361D02*
X143667219Y-141659171D01*
X144667219Y-141659171D01*
X143762457Y-143040123D02*
X143714838Y-142992504D01*
X143667219Y-142849647D01*
X143667219Y-142754409D01*
X143714838Y-142611552D01*
X143810076Y-142516314D01*
X143905314Y-142468695D01*
X144095790Y-142421076D01*
X144238647Y-142421076D01*
X144429123Y-142468695D01*
X144524361Y-142516314D01*
X144619600Y-142611552D01*
X144667219Y-142754409D01*
X144667219Y-142849647D01*
X144619600Y-142992504D01*
X144571980Y-143040123D01*
X144667219Y-143754409D02*
X143952933Y-143754409D01*
X143810076Y-143706790D01*
X143714838Y-143611552D01*
X143667219Y-143468695D01*
X143667219Y-143373457D01*
X143667219Y-144706790D02*
X143667219Y-144230600D01*
X144667219Y-144230600D01*
X143762457Y-145611552D02*
X143714838Y-145563933D01*
X143667219Y-145421076D01*
X143667219Y-145325838D01*
X143714838Y-145182980D01*
X143810076Y-145087742D01*
X143905314Y-145040123D01*
X144095790Y-144992504D01*
X144238647Y-144992504D01*
X144429123Y-145040123D01*
X144524361Y-145087742D01*
X144619600Y-145182980D01*
X144667219Y-145325838D01*
X144667219Y-145421076D01*
X144619600Y-145563933D01*
X144571980Y-145611552D01*
X144667219Y-146325838D02*
X143952933Y-146325838D01*
X143810076Y-146278219D01*
X143714838Y-146182980D01*
X143667219Y-146040123D01*
X143667219Y-145944885D01*
X143667219Y-147278219D02*
X143667219Y-146802028D01*
X144667219Y-146802028D01*
X143762457Y-148182980D02*
X143714838Y-148135361D01*
X143667219Y-147992504D01*
X143667219Y-147897266D01*
X143714838Y-147754409D01*
X143810076Y-147659171D01*
X143905314Y-147611552D01*
X144095790Y-147563933D01*
X144238647Y-147563933D01*
X144429123Y-147611552D01*
X144524361Y-147659171D01*
X144619600Y-147754409D01*
X144667219Y-147897266D01*
X144667219Y-147992504D01*
X144619600Y-148135361D01*
X144571980Y-148182980D01*
X146597619Y-129270952D02*
X146597619Y-129937619D01*
X145597619Y-129509047D01*
X146264285Y-130747142D02*
X145597619Y-130747142D01*
X146645238Y-130509047D02*
X145930952Y-130270952D01*
X145930952Y-130890000D01*
X146597619Y-131318571D02*
X146407142Y-131223333D01*
X146597619Y-132223333D02*
X146597619Y-131747142D01*
X146121428Y-131699523D01*
X146169047Y-131747142D01*
X146216666Y-131842380D01*
X146216666Y-132080476D01*
X146169047Y-132175714D01*
X146121428Y-132223333D01*
X146026190Y-132270952D01*
X145788095Y-132270952D01*
X145692857Y-132223333D01*
X145645238Y-132175714D01*
X145597619Y-132080476D01*
X145597619Y-131842380D01*
X145645238Y-131747142D01*
X145692857Y-131699523D01*
X146264285Y-133128095D02*
X145597619Y-133128095D01*
X146645238Y-132890000D02*
X145930952Y-132651904D01*
X145930952Y-133270952D01*
X145597619Y-134175714D02*
X145597619Y-133604285D01*
X145597619Y-133890000D02*
X146597619Y-133890000D01*
X146454761Y-133794761D01*
X146359523Y-133699523D01*
X146311904Y-133604285D01*
X145597619Y-135509047D02*
X145645238Y-135413809D01*
X145692857Y-135366190D01*
X145788095Y-135318571D01*
X146073809Y-135318571D01*
X146169047Y-135366190D01*
X146216666Y-135413809D01*
X146264285Y-135509047D01*
X146264285Y-135651904D01*
X146216666Y-135747142D01*
X146169047Y-135794761D01*
X146073809Y-135842380D01*
X145788095Y-135842380D01*
X145692857Y-135794761D01*
X145645238Y-135747142D01*
X145597619Y-135651904D01*
X145597619Y-135509047D01*
X145597619Y-136270952D02*
X146264285Y-136270952D01*
X146073809Y-136270952D02*
X146169047Y-136318571D01*
X146216666Y-136366190D01*
X146264285Y-136461428D01*
X146264285Y-136556666D01*
X146880000Y-137413809D02*
X146880000Y-138366190D01*
X146597619Y-137556666D02*
X146597619Y-138223333D01*
X145597619Y-137794761D01*
X146880000Y-138366190D02*
X146880000Y-139318571D01*
X146264285Y-139032857D02*
X145597619Y-139032857D01*
X146645238Y-138794761D02*
X145930952Y-138556666D01*
X145930952Y-139175714D01*
X146880000Y-139318571D02*
X146880000Y-139794761D01*
X146597619Y-139604285D02*
X146407142Y-139509047D01*
X146880000Y-139794761D02*
X146880000Y-140747142D01*
X146597619Y-140509047D02*
X146597619Y-140032857D01*
X146121428Y-139985238D01*
X146169047Y-140032857D01*
X146216666Y-140128095D01*
X146216666Y-140366190D01*
X146169047Y-140461428D01*
X146121428Y-140509047D01*
X146026190Y-140556666D01*
X145788095Y-140556666D01*
X145692857Y-140509047D01*
X145645238Y-140461428D01*
X145597619Y-140366190D01*
X145597619Y-140128095D01*
X145645238Y-140032857D01*
X145692857Y-139985238D01*
X146880000Y-140747142D02*
X146880000Y-141699523D01*
X146264285Y-141413809D02*
X145597619Y-141413809D01*
X146645238Y-141175714D02*
X145930952Y-140937619D01*
X145930952Y-141556666D01*
X146880000Y-141699523D02*
X146880000Y-142651904D01*
X146597619Y-142128095D02*
X146597619Y-142223333D01*
X146550000Y-142318571D01*
X146502380Y-142366190D01*
X146407142Y-142413809D01*
X146216666Y-142461428D01*
X145978571Y-142461428D01*
X145788095Y-142413809D01*
X145692857Y-142366190D01*
X145645238Y-142318571D01*
X145597619Y-142223333D01*
X145597619Y-142128095D01*
X145645238Y-142032857D01*
X145692857Y-141985238D01*
X145788095Y-141937619D01*
X145978571Y-141889999D01*
X146216666Y-141889999D01*
X146407142Y-141937619D01*
X146502380Y-141985238D01*
X146550000Y-142032857D01*
X146597619Y-142128095D01*
D11*
X156937064Y-143150000D02*
X155482936Y-143150000D01*
X156937064Y-141330000D02*
X155482936Y-141330000D01*
X153021000Y-125380000D02*
X154279000Y-125380000D01*
X153021000Y-123540000D02*
X154279000Y-123540000D01*
X153560000Y-125670000D02*
X153560000Y-146110000D01*
X156845000Y-127000000D02*
X158115000Y-127000000D01*
X156845000Y-127000000D02*
X156845000Y-126365000D01*
X157210000Y-125670000D02*
X153560000Y-125670000D01*
X153560000Y-146110000D02*
X158860000Y-146110000D01*
X158860000Y-146110000D02*
X158860000Y-125670000D01*
X155575000Y-126365000D02*
X155575000Y-127635000D01*
X158860000Y-125670000D02*
X157210000Y-125670000D01*
X155575000Y-127635000D02*
X156845000Y-127000000D01*
X156845000Y-126365000D02*
X156845000Y-127000000D01*
X155575000Y-127000000D02*
X154305000Y-127000000D01*
X156845000Y-127000000D02*
X156845000Y-127635000D01*
X156845000Y-127000000D02*
X155575000Y-126365000D01*
X145050000Y-123317000D02*
X143400000Y-123317000D01*
X143400000Y-123317000D02*
X143400000Y-148463000D01*
X148700000Y-148463000D02*
X148700000Y-123317000D01*
X143400000Y-148463000D02*
X148700000Y-148463000D01*
X148700000Y-123317000D02*
X147050000Y-123317000D01*
X145050000Y-123317000D02*
G75*
G03*
X147050000Y-123317000I1000000J0D01*
G01*
X156937064Y-145690000D02*
X155482936Y-145690000D01*
X156937064Y-143870000D02*
X155482936Y-143870000D01*
X156937064Y-140610000D02*
X155482936Y-140610000D01*
X156937064Y-138790000D02*
X155482936Y-138790000D01*
X156937064Y-136250000D02*
X155482936Y-136250000D01*
X156937064Y-138070000D02*
X155482936Y-138070000D01*
X156937064Y-126090000D02*
X155482936Y-126090000D01*
X156937064Y-127910000D02*
X155482936Y-127910000D01*
X156937064Y-128630000D02*
X155482936Y-128630000D01*
X156937064Y-130450000D02*
X155482936Y-130450000D01*
X156937064Y-132990000D02*
X155482936Y-132990000D01*
X156937064Y-131170000D02*
X155482936Y-131170000D01*
X156937064Y-133710000D02*
X155482936Y-133710000D01*
X156937064Y-135530000D02*
X155482936Y-135530000D01*
%LPC*%
D12*
X157760000Y-142240000D03*
X154660000Y-142240000D03*
D13*
X152400000Y-124460000D03*
X154900000Y-124460000D03*
D14*
X152400000Y-127000000D03*
D15*
X152400000Y-129540000D03*
X152400000Y-132080000D03*
X152400000Y-134620000D03*
X152400000Y-137160000D03*
X152400000Y-139700000D03*
X152400000Y-142240000D03*
X152400000Y-144780000D03*
X160020000Y-144780000D03*
X160020000Y-142240000D03*
X160020000Y-139700000D03*
X160020000Y-137160000D03*
X160020000Y-134620000D03*
X160020000Y-132080000D03*
X160020000Y-129540000D03*
X160020000Y-127000000D03*
D14*
X142240000Y-124460000D03*
D15*
X142240000Y-127000000D03*
X142240000Y-129540000D03*
X142240000Y-132080000D03*
X142240000Y-134620000D03*
X142240000Y-137160000D03*
X142240000Y-139700000D03*
X142240000Y-142240000D03*
X142240000Y-144780000D03*
X142240000Y-147320000D03*
X149860000Y-147320000D03*
X149860000Y-144780000D03*
X149860000Y-142240000D03*
X149860000Y-139700000D03*
X149860000Y-137160000D03*
X149860000Y-134620000D03*
X149860000Y-132080000D03*
X149860000Y-129540000D03*
X149860000Y-127000000D03*
X149860000Y-124460000D03*
D12*
X157760000Y-144780000D03*
X154660000Y-144780000D03*
X157760000Y-139700000D03*
X154660000Y-139700000D03*
X157760000Y-137160000D03*
X154660000Y-137160000D03*
X157760000Y-127000000D03*
X154660000Y-127000000D03*
X157760000Y-129540000D03*
X154660000Y-129540000D03*
X157760000Y-132080000D03*
X154660000Y-132080000D03*
X157760000Y-134620000D03*
X154660000Y-134620000D03*
D16*
X139700000Y-124460000D03*
D17*
X139700000Y-127000000D03*
X139700000Y-129540000D03*
X139700000Y-132080000D03*
X139700000Y-134620000D03*
X139700000Y-137160000D03*
X139700000Y-139700000D03*
X139700000Y-142240000D03*
X139700000Y-144780000D03*
X139700000Y-147320000D03*
D16*
X162560000Y-124460000D03*
D17*
X162560000Y-127000000D03*
X162560000Y-129540000D03*
X162560000Y-132080000D03*
X162560000Y-134620000D03*
X162560000Y-137160000D03*
X162560000Y-139700000D03*
X162560000Y-142240000D03*
X162560000Y-144780000D03*
X162560000Y-147320000D03*
M02*
