%TF.GenerationSoftware,KiCad,Pcbnew,(6.0.7-1)-1*%
%TF.CreationDate,2022-08-10T01:19:31+02:00*%
%TF.ProjectId,led_bar,6c65645f-6261-4722-9e6b-696361645f70,rev?*%
%TF.SameCoordinates,Original*%
%TF.FileFunction,Drillmap*%
%TF.FilePolarity,Positive*%
%FSLAX45Y45*%
G04 Gerber Fmt 4.5, Leading zero omitted, Abs format (unit mm)*
G04 Created by KiCad (PCBNEW (6.0.7-1)-1) date 2022-08-10 01:19:31*
%MOMM*%
%LPD*%
G01*
G04 APERTURE LIST*
%ADD10C,0.100000*%
%ADD11C,0.200000*%
G04 APERTURE END LIST*
D10*
X13843000Y-14732000D02*
X13843000Y-12446000D01*
X13843000Y-14732000D02*
G75*
G03*
X13970000Y-14859000I127000J0D01*
G01*
X16383000Y-12446000D02*
G75*
G03*
X16256000Y-12319000I-127000J0D01*
G01*
X16256000Y-14859000D02*
X13970000Y-14859000D01*
X13970000Y-12319000D02*
X16256000Y-12319000D01*
X16383000Y-12446000D02*
X16383000Y-14732000D01*
X13970000Y-12319000D02*
G75*
G03*
X13843000Y-12446000I0J-127000D01*
G01*
X16256000Y-14859000D02*
G75*
G03*
X16383000Y-14732000I0J127000D01*
G01*
D11*
X14095619Y-15174476D02*
X14095619Y-14974476D01*
X14143238Y-14974476D01*
X14171809Y-14984000D01*
X14190857Y-15003048D01*
X14200381Y-15022095D01*
X14209905Y-15060190D01*
X14209905Y-15088762D01*
X14200381Y-15126857D01*
X14190857Y-15145905D01*
X14171809Y-15164952D01*
X14143238Y-15174476D01*
X14095619Y-15174476D01*
X14295619Y-15174476D02*
X14295619Y-15041143D01*
X14295619Y-15079238D02*
X14305143Y-15060190D01*
X14314667Y-15050667D01*
X14333714Y-15041143D01*
X14352762Y-15041143D01*
X14419428Y-15174476D02*
X14419428Y-15041143D01*
X14419428Y-14974476D02*
X14409905Y-14984000D01*
X14419428Y-14993524D01*
X14428952Y-14984000D01*
X14419428Y-14974476D01*
X14419428Y-14993524D01*
X14543238Y-15174476D02*
X14524190Y-15164952D01*
X14514667Y-15145905D01*
X14514667Y-14974476D01*
X14648000Y-15174476D02*
X14628952Y-15164952D01*
X14619428Y-15145905D01*
X14619428Y-14974476D01*
X14876571Y-15174476D02*
X14876571Y-14974476D01*
X14943238Y-15117333D01*
X15009905Y-14974476D01*
X15009905Y-15174476D01*
X15190857Y-15174476D02*
X15190857Y-15069714D01*
X15181333Y-15050667D01*
X15162286Y-15041143D01*
X15124190Y-15041143D01*
X15105143Y-15050667D01*
X15190857Y-15164952D02*
X15171809Y-15174476D01*
X15124190Y-15174476D01*
X15105143Y-15164952D01*
X15095619Y-15145905D01*
X15095619Y-15126857D01*
X15105143Y-15107809D01*
X15124190Y-15098286D01*
X15171809Y-15098286D01*
X15190857Y-15088762D01*
X15286095Y-15041143D02*
X15286095Y-15241143D01*
X15286095Y-15050667D02*
X15305143Y-15041143D01*
X15343238Y-15041143D01*
X15362286Y-15050667D01*
X15371809Y-15060190D01*
X15381333Y-15079238D01*
X15381333Y-15136381D01*
X15371809Y-15155428D01*
X15362286Y-15164952D01*
X15343238Y-15174476D01*
X15305143Y-15174476D01*
X15286095Y-15164952D01*
X15467048Y-15155428D02*
X15476571Y-15164952D01*
X15467048Y-15174476D01*
X15457524Y-15164952D01*
X15467048Y-15155428D01*
X15467048Y-15174476D01*
X15467048Y-15050667D02*
X15476571Y-15060190D01*
X15467048Y-15069714D01*
X15457524Y-15060190D01*
X15467048Y-15050667D01*
X15467048Y-15069714D01*
M02*
